# xmcd CD database file
#
# Track frame offsets:
#	150
#	13710
#	27900
#	40350
#	53850
#	65850
#	78750
#	91335
#	105450
#	119700
#	132750
#	144487
#	157527
#	171000
#	184275
#	197175
#	210600
#	223950
#	237475
#	253065
#	266025
#	278855
#	299387
#
# Disc length: 4178 seconds
#
# Revision: 1
# Processed by: cddbd v1.4PL0 Copyright (c) Steve Scherf et al.
# Submitted via: NotifyCDPlayer 1.60beta13
#
DISCID=5f105017
DTITLE=Skip James and Jack Owens - Skip James and Jack Owens 1931-1981Jack Owe
DTITLE=ns
DYEAR=1900
DGENRE=
TTITLE0=Skip James: Devil Got My Woman
TTITLE1=Skip James: Cypress Grove Blues
TTITLE2=Skip James: Cherry Ball Blues
TTITLE3=Skip James: Illinois Blues
TTITLE4=Skip James: 4 O'clock Blues
TTITLE5=Skip James: Hard Luck Child
TTITLE6=Skip James: Hard Time Killing Floor Blues
TTITLE7=Skip James: Yola My Blues Away
TTITLE8=Skip James: Jesus Is a Mighty Good Leader
TTITLE9=Skip James: Be Ready When It Comes
TTITLE10=Skip James: Drunken Spree
TTITLE11=Skip James: I'm So Glad
TTITLE12=Skip James: Special Rider Blues
TTITLE13=Skip James: How Long "Buck"
TTITLE14=Skip James: Little Cow and Calf Is Gonna Die Blues
TTITLE15=Skip James: What Am I to Do Blues
TTITLE16=Skip James: 22-20 Blues
TTITLE17=Skip James: If You Haven't Got Any Hay Get on Down the Road
TTITLE18=Jack Owens: Hard Times
TTITLE19=Jack Owens: Cherry Ball
TTITLE20=Jack Owens: Give Me Your Money
TTITLE21=Jack Owens: Devil Blues
TTITLE22=Jack Owens: Leavin' Blues
EXTD=
EXTT0=
EXTT1=
EXTT2=
EXTT3=
EXTT4=
EXTT5=
EXTT6=
EXTT7=
EXTT8=
EXTT9=
EXTT10=
EXTT11=
EXTT12=
EXTT13=
EXTT14=
EXTT15=
EXTT16=
EXTT17=
EXTT18=
EXTT19=
EXTT20=
EXTT21=
EXTT22=
PLAYORDER=
